<svg id="visual" viewBox="0 0 900 600" width="900" height="600" xmlns="http://www.w3.org/2000/svg" xmlns:xlink="http://www.w3.org/1999/xlink" version="1.1"><rect x="0" y="0" width="900" height="600" fill="#002233"></rect><path d="M0 539L25 514.5C50 490 100 441 150 410.7C200 380.3 250 368.7 300 374.2C350 379.7 400 402.3 450 400.3C500 398.3 550 371.7 600 391.7C650 411.7 700 478.3 750 499C800 519.7 850 494.3 875 481.7L900 469L900 601L875 601C850 601 800 601 750 601C700 601 650 601 600 601C550 601 500 601 450 601C400 601 350 601 300 601C250 601 200 601 150 601C100 601 50 601 25 601L0 601Z" fill="#082f49" stroke-linecap="round" stroke-linejoin="miter"></path></svg>