<svg id="visual" viewBox="0 0 900 600" width="900" height="600" xmlns="http://www.w3.org/2000/svg" xmlns:xlink="http://www.w3.org/1999/xlink" version="1.1"><rect x="0" y="0" width="900" height="600" fill="#1e3a8a"></rect><path d="M0 181L21.5 188.7C43 196.3 86 211.7 128.8 206.7C171.7 201.7 214.3 176.3 257.2 174C300 171.7 343 192.3 385.8 189.3C428.7 186.3 471.3 159.7 514.2 163.5C557 167.3 600 201.7 642.8 214.5C685.7 227.3 728.3 218.7 771.2 193.2C814 167.7 857 125.3 878.5 104.2L900 83L900 601L878.5 601C857 601 814 601 771.2 601C728.3 601 685.7 601 642.8 601C600 601 557 601 514.2 601C471.3 601 428.7 601 385.8 601C343 601 300 601 257.2 601C214.3 601 171.7 601 128.8 601C86 601 43 601 21.5 601L0 601Z" fill="#1e3a8a"></path><path d="M0 198L21.5 192C43 186 86 174 128.8 182.3C171.7 190.7 214.3 219.3 257.2 221.2C300 223 343 198 385.8 190C428.7 182 471.3 191 514.2 194.3C557 197.7 600 195.3 642.8 204.7C685.7 214 728.3 235 771.2 236.7C814 238.3 857 220.7 878.5 211.8L900 203L900 601L878.5 601C857 601 814 601 771.2 601C728.3 601 685.7 601 642.8 601C600 601 557 601 514.2 601C471.3 601 428.7 601 385.8 601C343 601 300 601 257.2 601C214.3 601 171.7 601 128.8 601C86 601 43 601 21.5 601L0 601Z" fill="#173579"></path><path d="M0 298L21.5 293.2C43 288.3 86 278.7 128.8 266.5C171.7 254.3 214.3 239.7 257.2 237.7C300 235.7 343 246.3 385.8 255.2C428.7 264 471.3 271 514.2 270.7C557 270.3 600 262.7 642.8 267.3C685.7 272 728.3 289 771.2 301.7C814 314.3 857 322.7 878.5 326.8L900 331L900 601L878.5 601C857 601 814 601 771.2 601C728.3 601 685.7 601 642.8 601C600 601 557 601 514.2 601C471.3 601 428.7 601 385.8 601C343 601 300 601 257.2 601C214.3 601 171.7 601 128.8 601C86 601 43 601 21.5 601L0 601Z" fill="#123068"></path><path d="M0 350L21.5 355.2C43 360.3 86 370.7 128.8 378.2C171.7 385.7 214.3 390.3 257.2 390.7C300 391 343 387 385.8 385.8C428.7 384.7 471.3 386.3 514.2 378.7C557 371 600 354 642.8 338.8C685.7 323.7 728.3 310.3 771.2 308.8C814 307.3 857 317.7 878.5 322.8L900 328L900 601L878.5 601C857 601 814 601 771.2 601C728.3 601 685.7 601 642.8 601C600 601 557 601 514.2 601C471.3 601 428.7 601 385.8 601C343 601 300 601 257.2 601C214.3 601 171.7 601 128.8 601C86 601 43 601 21.5 601L0 601Z" fill="#112a57"></path><path d="M0 446L21.5 432.3C43 418.7 86 391.3 128.8 385.7C171.7 380 214.3 396 257.2 396.7C300 397.3 343 382.7 385.8 385.7C428.7 388.7 471.3 409.3 514.2 412.7C557 416 600 402 642.8 402.7C685.7 403.3 728.3 418.7 771.2 416.3C814 414 857 394 878.5 384L900 374L900 601L878.5 601C857 601 814 601 771.2 601C728.3 601 685.7 601 642.8 601C600 601 557 601 514.2 601C471.3 601 428.7 601 385.8 601C343 601 300 601 257.2 601C214.3 601 171.7 601 128.8 601C86 601 43 601 21.5 601L0 601Z" fill="#112447"></path><path d="M0 452L21.5 461C43 470 86 488 128.8 484C171.7 480 214.3 454 257.2 445C300 436 343 444 385.8 456.3C428.7 468.7 471.3 485.3 514.2 485C557 484.7 600 467.3 642.8 457.5C685.7 447.7 728.3 445.3 771.2 448.5C814 451.7 857 460.3 878.5 464.7L900 469L900 601L878.5 601C857 601 814 601 771.2 601C728.3 601 685.7 601 642.8 601C600 601 557 601 514.2 601C471.3 601 428.7 601 385.8 601C343 601 300 601 257.2 601C214.3 601 171.7 601 128.8 601C86 601 43 601 21.5 601L0 601Z" fill="#111e37"></path><path d="M0 506L21.5 505.5C43 505 86 504 128.8 506.8C171.7 509.7 214.3 516.3 257.2 515.2C300 514 343 505 385.8 511C428.7 517 471.3 538 514.2 542.7C557 547.3 600 535.7 642.8 528.8C685.7 522 728.3 520 771.2 514C814 508 857 498 878.5 493L900 488L900 601L878.5 601C857 601 814 601 771.2 601C728.3 601 685.7 601 642.8 601C600 601 557 601 514.2 601C471.3 601 428.7 601 385.8 601C343 601 300 601 257.2 601C214.3 601 171.7 601 128.8 601C86 601 43 601 21.5 601L0 601Z" fill="#111827"></path></svg>