<svg id="visual" viewBox="0 0 900 600" width="900" height="600" xmlns="http://www.w3.org/2000/svg" xmlns:xlink="http://www.w3.org/1999/xlink" version="1.1"><rect x="0" y="0" width="900" height="600" fill="#002233"></rect><path d="M0 401L25 417.8C50 434.7 100 468.3 150 462C200 455.7 250 409.3 300 408.8C350 408.3 400 453.7 450 481.8C500 510 550 521 600 516C650 511 700 490 750 471.7C800 453.3 850 437.7 875 429.8L900 422L900 601L875 601C850 601 800 601 750 601C700 601 650 601 600 601C550 601 500 601 450 601C400 601 350 601 300 601C250 601 200 601 150 601C100 601 50 601 25 601L0 601Z" fill="#082f49" stroke-linecap="round" stroke-linejoin="miter"></path></svg>